<?xml version="1.0" encoding="UTF-8" standalone="no"?>
<!-- Created with Inkscape (http://www.inkscape.org/) -->
<svg
   xmlns:dc="http://purl.org/dc/elements/1.1/"
   xmlns:cc="http://web.resource.org/cc/"
   xmlns:rdf="http://www.w3.org/1999/02/22-rdf-syntax-ns#"
   xmlns:svg="http://www.w3.org/2000/svg"
   xmlns="http://www.w3.org/2000/svg"
   xmlns:sodipodi="http://sodipodi.sourceforge.net/DTD/sodipodi-0.dtd"
   xmlns:inkscape="http://www.inkscape.org/namespaces/inkscape"
   width="637.02179"
   height="374.65021"
   id="svg2"
   sodipodi:version="0.32"
   inkscape:version="0.45.1"
   sodipodi:docbase="/home/glyph"
   sodipodi:docname="pyopenssl.svg"
   inkscape:output_extension="org.inkscape.output.svg.inkscape"
   version="1.0">
  <defs
     id="defs4" />
  <sodipodi:namedview
     id="base"
     pagecolor="#ffffff"
     bordercolor="#666666"
     borderopacity="1.0"
     gridtolerance="10000"
     guidetolerance="10"
     objecttolerance="10"
     inkscape:pageopacity="0.0"
     inkscape:pageshadow="2"
     inkscape:zoom="1.4"
     inkscape:cx="280.76485"
     inkscape:cy="162.58007"
     inkscape:document-units="px"
     inkscape:current-layer="layer1"
     showguides="true"
     inkscape:guide-bbox="true"
     inkscape:window-width="1243"
     inkscape:window-height="997"
     inkscape:window-x="31"
     inkscape:window-y="21"
     inkscape:showpageshadow="true"
     showborder="false" />
  <metadata
     id="metadata7">
    <rdf:RDF>
      <cc:Work
         rdf:about="">
        <dc:format>image/svg+xml</dc:format>
        <dc:type
           rdf:resource="http://purl.org/dc/dcmitype/StillImage" />
      </cc:Work>
    </rdf:RDF>
  </metadata>
  <g
     inkscape:label="Layer 1"
     inkscape:groupmode="layer"
     id="layer1"
     transform="translate(-48,-348.42626)">
    <g
       id="g3322"
       transform="translate(-46,0)">
      <path
         sodipodi:nodetypes="cccccc"
         id="rect3192"
         d="M 659.97827,570.41187 L 731.02176,570.41187 L 694.59319,588.79075 L 731.02176,607.16964 L 659.97827,607.16964 L 659.97827,570.41187 z "
         style="fill:#e90000;fill-opacity:1;fill-rule:nonzero;stroke:none;stroke-width:0.67079389;stroke-linecap:round;stroke-linejoin:round;stroke-miterlimit:4;stroke-opacity:1" />
      <path
         id="rect3182"
         d="M 134.03397,541.66071 C 111.9415,541.66071 94,562.76288 94,588.78571 C 94,614.80857 111.9415,635.94196 134.03397,635.94196 C 136.3665,635.94196 138.62869,635.67498 140.85222,635.22321 L 595.87054,635.22321 L 595.87054,542.34821 L 140.85222,542.34821 C 138.62869,541.89644 136.3665,541.66071 134.03397,541.66071 z "
         style="fill:#00b900;fill-opacity:1;fill-rule:nonzero;stroke:none;stroke-width:1;stroke-linecap:round;stroke-linejoin:round;stroke-miterlimit:4;stroke-dasharray:none;stroke-opacity:1" />
      <g
         transform="translate(15.714286,-0.7142857)"
         style="fill:#00b900;fill-opacity:1"
         id="g3222">
        <path
           style="opacity:1;fill:#00b900;fill-opacity:1;fill-rule:nonzero;stroke:none;stroke-width:34.88786697;stroke-linecap:round;stroke-linejoin:round;stroke-miterlimit:4;stroke-dasharray:none;stroke-opacity:1"
           d="M 528.3125,511.0625 C 518.6717,511.04975 510.84826,518.8592 510.84375,528.5 L 510.84375,650.5 C 510.83762,655.13488 512.6761,659.58169 515.95346,662.85904 C 519.23081,666.1364 523.67762,667.97488 528.3125,667.96875 L 605.5625,667.96875 C 615.2033,667.96424 623.01275,660.1408 623,650.5 L 623,528.5 C 622.99549,518.8714 615.1911,511.06701 605.5625,511.0625 L 528.3125,511.0625 z "
           id="rect3184"
           sodipodi:nodetypes="cccscccccc" />
        <path
           style="opacity:1;fill:#00b900;fill-opacity:1;fill-rule:nonzero;stroke:none;stroke-width:41.47727203;stroke-linecap:round;stroke-linejoin:round;stroke-miterlimit:4;stroke-dasharray:none;stroke-opacity:1"
           d="M 584.03125,551.28125 C 572.56922,551.27611 563.27611,560.56922 563.28125,572.03125 L 563.28125,607 C 563.29337,618.44983 572.58142,627.72388 584.03125,627.71875 L 646.84375,627.71875 C 658.28138,627.70665 667.5504,618.43763 667.5625,607 L 667.5625,572.03125 C 667.56763,560.58142 658.29358,551.29337 646.84375,551.28125 L 584.03125,551.28125 z "
           id="rect3190" />
      </g>
      <g
         transform="translate(15.714286,-2.846549)"
         id="g3218">
        <path
           sodipodi:type="arc"
           style="opacity:1;fill:#ffffff;fill-opacity:1;fill-rule:nonzero;stroke:none;stroke-width:1;stroke-linecap:round;stroke-linejoin:round;stroke-miterlimit:4;stroke-dasharray:none;stroke-opacity:1"
           id="path3206"
           sodipodi:cx="564.28571"
           sodipodi:cy="551.64789"
           sodipodi:rx="21.428572"
           sodipodi:ry="21.428572"
           d="M 585.71428 551.64789 A 21.428572 21.428572 0 1 1  542.85713,551.64789 A 21.428572 21.428572 0 1 1  585.71428 551.64789 z"
           transform="translate(2.6361696,0)" />
        <path
           d="M 585.71428 551.64789 A 21.428572 21.428572 0 1 1  542.85713,551.64789 A 21.428572 21.428572 0 1 1  585.71428 551.64789 z"
           sodipodi:ry="21.428572"
           sodipodi:rx="21.428572"
           sodipodi:cy="551.64789"
           sodipodi:cx="564.28571"
           id="path3208"
           style="opacity:1;fill:#ffffff;fill-opacity:1;fill-rule:nonzero;stroke:none;stroke-width:1;stroke-linecap:round;stroke-linejoin:round;stroke-miterlimit:4;stroke-dasharray:none;stroke-opacity:1"
           sodipodi:type="arc"
           transform="translate(2.6361696,80)" />
      </g>
      <g
         transform="translate(15.714286,7.8520886)"
         id="g3214">
        <path
           sodipodi:type="arc"
           style="opacity:1;fill:#000000;fill-opacity:1;fill-rule:nonzero;stroke:none;stroke-width:1;stroke-linecap:round;stroke-linejoin:round;stroke-miterlimit:4;stroke-dasharray:none;stroke-opacity:1"
           id="path3210"
           sodipodi:cx="564.28571"
           sodipodi:cy="551.64789"
           sodipodi:rx="21.428572"
           sodipodi:ry="21.428572"
           d="M 585.71428 551.64789 A 21.428572 21.428572 0 1 1  542.85713,551.64789 A 21.428572 21.428572 0 1 1  585.71428 551.64789 z"
           transform="matrix(0.3666667,0,0,0.3666667,440.95238,363.99605)" />
        <path
           d="M 585.71428 551.64789 A 21.428572 21.428572 0 1 1  542.85713,551.64789 A 21.428572 21.428572 0 1 1  585.71428 551.64789 z"
           sodipodi:ry="21.428572"
           sodipodi:rx="21.428572"
           sodipodi:cy="551.64789"
           sodipodi:cx="564.28571"
           id="path3212"
           style="opacity:1;fill:#000000;fill-opacity:1;fill-rule:nonzero;stroke:none;stroke-width:1;stroke-linecap:round;stroke-linejoin:round;stroke-miterlimit:4;stroke-dasharray:none;stroke-opacity:1"
           sodipodi:type="arc"
           transform="matrix(0.3666667,0,0,0.3666667,440.95238,393.32938)" />
      </g>
    </g>
    <path
       style="fill:#7f7f7f;fill-opacity:1;fill-rule:nonzero;stroke:none;stroke-width:50;stroke-linecap:round;stroke-linejoin:round;stroke-miterlimit:4;stroke-dasharray:none;stroke-opacity:1"
       d="M 220.092,348.42626 C 208.29083,348.42743 198.7244,357.99387 198.72322,369.79504 L 198.72322,460.05141 L 229.54768,460.05141 L 229.54768,394.58282 C 229.54853,386.11098 236.40795,379.25157 244.87978,379.25072 L 371.11584,379.25072 C 379.58768,379.25157 386.44709,386.11096 386.44794,394.58282 L 386.44794,460.05141 L 417.29911,460.05141 L 417.29911,369.79504 C 417.29792,357.99386 407.7315,348.42744 395.93033,348.42626 L 220.092,348.42626 z "
       id="rect2182" />
    <rect
       style="fill:#000000;fill-opacity:1;fill-rule:nonzero;stroke:none;stroke-width:3;stroke-linejoin:miter;stroke-miterlimit:4;stroke-dasharray:none;stroke-opacity:1"
       id="rect2160"
       width="268.57144"
       height="268.57144"
       x="173.71428"
       y="454.50504" />
    <path
       style="fill:#b3b3b3;fill-opacity:1;fill-rule:nonzero;stroke:none;stroke-width:1;stroke-linecap:round;stroke-linejoin:round;stroke-miterlimit:4;stroke-dasharray:none;stroke-opacity:1;opacity:1"
       d="M 308,488.80638 C 278.42857,488.80638 254.4375,512.8287 254.4375,542.40013 C 254.4375,562.41092 265.41804,579.85847 281.6875,589.05638 L 224.09375,688.77513 L 391.90625,688.77513 L 334.3125,589.05638 C 350.58196,579.85847 361.56251,562.41092 361.5625,542.40013 C 361.5625,512.8287 337.57142,488.80639 308,488.80638 z "
       id="path3292" />
  </g>
</svg>
